<svg xmlns="http://www.w3.org/2000/svg" width="1600" height="1260" viewBox="0 0 1600 1260" role="img" aria-labelledby="title desc">
  <title id="title">Bottleneck Migration Network — Depth Map</title>
  <desc id="desc">A single network diagram organized by four industry domains and four bottleneck depths, showing how replication pressure migrates from confirmed bottlenecks into direct inputs, process capacity, and shared physical constraints.</desc>
  <defs>
    <filter id="shadow" x="-20%" y="-20%" width="140%" height="140%">
      <feDropShadow dx="0" dy="2" stdDeviation="3" flood-color="#0f172a" flood-opacity="0.14"/>
    </filter>
    <marker id="arrow" viewBox="0 0 10 10" refX="9" refY="5" markerWidth="7" markerHeight="7" orient="auto-start-reverse">
      <path d="M 0 0 L 10 5 L 0 10 z" fill="#64748b"/>
    </marker>
    <marker id="arrow-red" viewBox="0 0 10 10" refX="9" refY="5" markerWidth="7" markerHeight="7" orient="auto-start-reverse">
      <path d="M 0 0 L 10 5 L 0 10 z" fill="#dc2626"/>
    </marker>
    <marker id="arrow-blue" viewBox="0 0 10 10" refX="9" refY="5" markerWidth="7" markerHeight="7" orient="auto-start-reverse">
      <path d="M 0 0 L 10 5 L 0 10 z" fill="#2563eb"/>
    </marker>
    <marker id="arrow-teal" viewBox="0 0 10 10" refX="9" refY="5" markerWidth="7" markerHeight="7" orient="auto-start-reverse">
      <path d="M 0 0 L 10 5 L 0 10 z" fill="#0f766e"/>
    </marker>
    <style>
      .canvas { fill: #f8fafc; }
      .grid { stroke: #cbd5e1; stroke-width: 1; }
      .lane-a { fill: #ffffff; }
      .lane-b { fill: #f8fafc; }
      .depth-0 { fill: #fef2f2; }
      .depth-1 { fill: #fff7ed; }
      .depth-2 { fill: #fefce8; }
      .depth-3 { fill: #eff6ff; }
      .title { font: 700 27px -apple-system, BlinkMacSystemFont, "Segoe UI", sans-serif; fill: #0f172a; }
      .subtitle { font: 400 14px -apple-system, BlinkMacSystemFont, "Segoe UI", sans-serif; fill: #64748b; }
      .depth-label { font: 700 15px -apple-system, BlinkMacSystemFont, "Segoe UI", sans-serif; fill: #334155; letter-spacing: 0.6px; }
      .depth-note { font: 400 12px -apple-system, BlinkMacSystemFont, "Segoe UI", sans-serif; fill: #64748b; }
      .lane-label { font: 700 16px -apple-system, BlinkMacSystemFont, "Segoe UI", sans-serif; fill: #0f172a; letter-spacing: 0.8px; }
      .lane-note { font: 400 12px -apple-system, BlinkMacSystemFont, "Segoe UI", sans-serif; fill: #64748b; }
      .node { stroke: #64748b; stroke-width: 1.4; rx: 10; filter: url(#shadow); }
      .confirmed { fill: #fca5a5; stroke: #b91c1c; }
      .direct { fill: #fdba74; stroke: #c2410c; }
      .candidate { fill: #fef3c7; stroke: #a16207; }
      .shared { fill: #bfdbfe; stroke: #1d4ed8; }
      .context { fill: #e5e7eb; stroke: #64748b; }
      .node-text { font: 600 13px -apple-system, BlinkMacSystemFont, "Segoe UI", sans-serif; fill: #111827; text-anchor: middle; }
      .node-small { font: 500 12px -apple-system, BlinkMacSystemFont, "Segoe UI", sans-serif; fill: #111827; text-anchor: middle; }
      .edge { fill: none; stroke: #64748b; stroke-width: 2; marker-end: url(#arrow); }
      .pressure { fill: none; stroke: #dc2626; stroke-width: 2; stroke-dasharray: 7 5; marker-end: url(#arrow-red); }
      .shared-edge { fill: none; stroke: #2563eb; stroke-width: 2.2; marker-end: url(#arrow-blue); }
      .feedback { fill: none; stroke: #0f766e; stroke-width: 2; stroke-dasharray: 6 5; marker-end: url(#arrow-teal); }
      .edge-label { font: 500 11px -apple-system, BlinkMacSystemFont, "Segoe UI", sans-serif; fill: #475569; }
      .legend { font: 500 13px -apple-system, BlinkMacSystemFont, "Segoe UI", sans-serif; fill: #334155; }
      .legend-strong { font: 700 13px -apple-system, BlinkMacSystemFont, "Segoe UI", sans-serif; fill: #0f172a; }
    </style>
  </defs>

  <rect class="canvas" width="1600" height="1260" rx="18"/>
  <text class="title" x="30" y="40">Bottleneck Migration Network — Depth Map</text>
  <text class="subtitle" x="30" y="64">Columns measure replication distance from a confirmed bottleneck; rows keep every branch at the same industry-domain level.</text>

  <!-- Depth columns -->
  <rect class="depth-0" x="175" y="78" width="230" height="1042" rx="10"/>
  <rect class="depth-1" x="405" y="78" width="370" height="1042" rx="10"/>
  <rect class="depth-2" x="775" y="78" width="450" height="1042" rx="10"/>
  <rect class="depth-3" x="1225" y="78" width="355" height="1042" rx="10"/>

  <text class="depth-label" x="290" y="101" text-anchor="middle">D0 · CONFIRMED</text>
  <text class="depth-note" x="290" y="119" text-anchor="middle">market-visible bottleneck</text>
  <text class="depth-label" x="590" y="101" text-anchor="middle">D1 · DIRECT INPUT</text>
  <text class="depth-note" x="590" y="119" text-anchor="middle">capacity pulled by D0 replication</text>
  <text class="depth-label" x="1000" y="101" text-anchor="middle">D2 · PROCESS / MATERIAL / QUALIFICATION</text>
  <text class="depth-note" x="1000" y="119" text-anchor="middle">capacity required to replicate D1</text>
  <text class="depth-label" x="1402" y="101" text-anchor="middle">D3 · PHYSICAL / SHARED</text>
  <text class="depth-note" x="1402" y="119" text-anchor="middle">equipment and cross-domain collision</text>

  <!-- Domain lanes -->
  <rect class="lane-a" x="20" y="135" width="1560" height="240" rx="8" opacity="0.66"/>
  <rect class="lane-b" x="20" y="375" width="1560" height="240" rx="8" opacity="0.66"/>
  <rect class="lane-a" x="20" y="615" width="1560" height="240" rx="8" opacity="0.66"/>
  <rect class="lane-b" x="20" y="855" width="1560" height="265" rx="8" opacity="0.66"/>
  <line class="grid" x1="20" y1="375" x2="1580" y2="375"/>
  <line class="grid" x1="20" y1="615" x2="1580" y2="615"/>
  <line class="grid" x1="20" y1="855" x2="1580" y2="855"/>
  <line class="grid" x1="175" y1="78" x2="175" y2="1120"/>
  <line class="grid" x1="405" y1="78" x2="405" y2="1120"/>
  <line class="grid" x1="775" y1="78" x2="775" y2="1120"/>
  <line class="grid" x1="1225" y1="78" x2="1225" y2="1120"/>

  <text class="lane-label" x="36" y="236">COMPUTE</text>
  <text class="lane-note" x="36" y="257">GPU + memory</text>
  <text class="lane-note" x="36" y="273">+ packaging</text>
  <text class="lane-label" x="36" y="476">POWER</text>
  <text class="lane-note" x="36" y="497">generation</text>
  <text class="lane-note" x="36" y="513">+ delivery</text>
  <text class="lane-label" x="36" y="716">STORAGE</text>
  <text class="lane-note" x="36" y="737">enterprise SSD</text>
  <text class="lane-note" x="36" y="753">+ qualification</text>
  <text class="lane-label" x="36" y="971">NETWORKING</text>
  <text class="lane-note" x="36" y="992">optical module</text>
  <text class="lane-note" x="36" y="1008">+ photonics</text>

  <!-- Edges: demand, D0 pressure, and feedback -->
  <path class="edge" d="M290 213 V270"/>
  <path class="pressure" d="M380 301 H394 V478 H380"/>
  <path class="pressure" d="M380 301 H394 V718 H380"/>
  <path class="pressure" d="M380 301 H394 V958 H380"/>
  <text class="edge-label" x="399" y="408">power</text>
  <text class="edge-label" x="399" y="648">data / context</text>
  <text class="edge-label" x="399" y="888">scale-out traffic</text>
  <path class="feedback" d="M205 478 C172 478 172 330 205 330"/>
  <path class="feedback" d="M205 958 C153 958 153 340 205 340"/>

  <!-- Compute edges -->
  <path class="edge" d="M380 301 H425 V213 H455"/>
  <path class="edge" d="M380 301 H425 V313 H455"/>
  <path class="edge" d="M705 213 L805 185"/>
  <path class="edge" d="M705 213 L1010 185"/>
  <path class="edge" d="M705 313 L805 300"/>
  <path class="edge" d="M705 313 L1010 300"/>
  <path class="shared-edge" d="M1190 185 L1260 255"/>
  <path class="shared-edge" d="M985 300 L1260 255"/>

  <!-- Power edges -->
  <path class="edge" d="M380 485 H425 V420 H455"/>
  <path class="edge" d="M380 485 H455"/>
  <path class="edge" d="M380 485 H425 V565 H455"/>
  <path class="edge" d="M705 420 L805 430"/>
  <path class="edge" d="M705 490 L995 500"/>
  <path class="edge" d="M705 565 L805 565"/>
  <path class="shared-edge" d="M985 430 L1260 480"/>
  <path class="shared-edge" d="M1190 500 L1260 480"/>
  <path class="shared-edge" d="M1355 590 V535"/>

  <!-- Storage edges -->
  <path class="edge" d="M380 725 H425 V655 H455"/>
  <path class="edge" d="M380 725 H455"/>
  <path class="edge" d="M380 725 H425 V795 H455"/>
  <path class="edge" d="M705 655 L805 665"/>
  <path class="edge" d="M705 725 L995 735"/>
  <path class="edge" d="M705 795 L805 805"/>
  <path class="shared-edge" d="M985 665 L1260 680"/>
  <path class="shared-edge" d="M1190 735 L1260 795"/>

  <!-- Networking edges -->
  <path class="edge" d="M380 965 H425 V885 H455"/>
  <path class="edge" d="M380 965 H425 V945 H455"/>
  <path class="edge" d="M380 965 H425 V1005 H455"/>
  <path class="edge" d="M380 965 H425 V1065 H455"/>
  <path class="edge" d="M705 885 L805 890"/>
  <path class="edge" d="M705 945 L995 950"/>
  <path class="edge" d="M705 1005 L805 1015"/>
  <path class="edge" d="M705 1065 L995 1075"/>
  <path class="shared-edge" d="M985 890 L1260 795"/>
  <path class="edge" d="M1190 950 L1260 1015"/>
  <path class="edge" d="M985 1015 L1260 1015"/>
  <path class="edge" d="M1190 1075 L1260 1015"/>

  <!-- D0 nodes -->
  <rect class="node context" x="205" y="158" width="170" height="55"/>
  <text class="node-text" x="290" y="181"><tspan x="290">AI DEMAND</tspan><tspan class="node-small" x="290" dy="17">10× shock</tspan></text>

  <rect class="node confirmed" x="205" y="270" width="175" height="62"/>
  <text class="node-text" x="292.5" y="294"><tspan x="292.5">COMPUTE</tspan><tspan class="node-small" x="292.5" dy="18">GPU / ASIC</tspan></text>

  <rect class="node confirmed" x="205" y="455" width="175" height="60"/>
  <text class="node-text" x="292.5" y="478"><tspan x="292.5">POWER</tspan><tspan class="node-small" x="292.5" dy="18">Gas Turbine · GEV</tspan></text>

  <rect class="node confirmed" x="205" y="695" width="175" height="60"/>
  <text class="node-text" x="292.5" y="718"><tspan x="292.5">STORAGE</tspan><tspan class="node-small" x="292.5" dy="18">Enterprise SSD</tspan></text>

  <rect class="node confirmed" x="205" y="930" width="175" height="70"/>
  <text class="node-text" x="292.5" y="953"><tspan x="292.5">NETWORKING</tspan><tspan class="node-small" x="292.5" dy="18">Optical Module</tspan><tspan class="node-small" x="292.5" dy="16">800G / 1.6T</tspan></text>

  <!-- D1 nodes -->
  <rect class="node direct" x="455" y="185" width="250" height="56"/>
  <text class="node-text" x="580" y="218">HBM</text>
  <rect class="node direct" x="455" y="285" width="250" height="56"/>
  <text class="node-text" x="580" y="318">Advanced Packaging</text>

  <rect class="node direct" x="455" y="392" width="250" height="56"/>
  <text class="node-text" x="580" y="416"><tspan x="580">Large Forgings</tspan><tspan x="580" dy="17">/ Castings</tspan></text>
  <rect class="node direct" x="455" y="462" width="250" height="56"/>
  <text class="node-text" x="580" y="486"><tspan x="580">Hot-gas-path</tspan><tspan x="580" dy="17">Parts</tspan></text>
  <rect class="node direct" x="455" y="537" width="250" height="56"/>
  <text class="node-text" x="580" y="561"><tspan x="580">Assembly</tspan><tspan x="580" dy="17">/ Test Bays</tspan></text>

  <rect class="node direct" x="455" y="627" width="250" height="56"/>
  <text class="node-text" x="580" y="660">NAND Die</text>
  <rect class="node direct" x="455" y="697" width="250" height="56"/>
  <text class="node-text" x="580" y="730">Controller ASIC</text>
  <rect class="node direct" x="455" y="767" width="250" height="56"/>
  <text class="node-text" x="580" y="791"><tspan x="580">Firmware</tspan><tspan x="580" dy="17">/ Qualification</tspan></text>

  <rect class="node direct" x="455" y="857" width="250" height="56"/>
  <text class="node-text" x="580" y="890">Optical DSP</text>
  <rect class="node direct" x="455" y="917" width="250" height="56"/>
  <text class="node-text" x="580" y="950">Laser Source</text>
  <rect class="node direct" x="455" y="977" width="250" height="56"/>
  <text class="node-text" x="580" y="1010">SiPh / PIC</text>
  <rect class="node direct" x="455" y="1037" width="250" height="56"/>
  <text class="node-text" x="580" y="1070">Assembly / Test</text>

  <!-- D2 nodes -->
  <rect class="node candidate" x="805" y="155" width="180" height="60"/>
  <text class="node-text" x="895" y="179"><tspan x="895">DRAM Wafer</tspan><tspan x="895" dy="17">Starts + Yield</tspan></text>
  <rect class="node candidate" x="1010" y="155" width="180" height="60"/>
  <text class="node-text" x="1100" y="179"><tspan x="1100">TSV / Thinning</tspan><tspan x="1100" dy="17">/ Stacking</tspan></text>
  <rect class="node candidate" x="805" y="270" width="180" height="60"/>
  <text class="node-text" x="895" y="294"><tspan x="895">Interposer</tspan><tspan x="895" dy="17">/ Substrate</tspan></text>
  <rect class="node candidate" x="1010" y="270" width="180" height="60"/>
  <text class="node-text" x="1100" y="294"><tspan x="1100">Burn-in</tspan><tspan x="1100" dy="17">/ Final Test</tspan></text>

  <rect class="node candidate" x="805" y="400" width="180" height="60"/>
  <text class="node-text" x="895" y="424"><tspan x="895">Superalloy Melt</tspan><tspan x="895" dy="17">/ Heat Treatment</tspan></text>
  <rect class="node candidate" x="995" y="465" width="195" height="70"/>
  <text class="node-text" x="1092.5" y="488"><tspan x="1092.5">Single-crystal / TBC</tspan><tspan x="1092.5" dy="17">/ Cooling Holes</tspan></text>
  <rect class="node candidate" x="805" y="535" width="180" height="60"/>
  <text class="node-text" x="895" y="551"><tspan x="895">NDT / Supplier QA</tspan><tspan x="895" dy="17">/ Qualified Labor</tspan></text>

  <rect class="node candidate" x="805" y="635" width="180" height="60"/>
  <text class="node-text" x="895" y="651"><tspan x="895">NAND Wafer / Layer</tspan><tspan x="895" dy="17">/ Package Test</tspan></text>
  <rect class="node candidate" x="995" y="700" width="195" height="70"/>
  <text class="node-text" x="1092.5" y="724"><tspan x="1092.5">Foundry / SerDes</tspan><tspan x="1092.5" dy="17">/ DRAM / PLP</tspan></text>
  <rect class="node candidate" x="805" y="775" width="180" height="60"/>
  <text class="node-text" x="895" y="799"><tspan x="895">OEM Lab</tspan><tspan x="895" dy="17">/ Workload Cycles</tspan></text>

  <rect class="node candidate" x="805" y="860" width="180" height="60"/>
  <text class="node-text" x="895" y="884"><tspan x="895">3nm DSP</tspan><tspan x="895" dy="17">Foundry + Test</tspan></text>
  <rect class="node candidate" x="995" y="920" width="195" height="60"/>
  <text class="node-text" x="1092.5" y="944"><tspan x="1092.5">InP Epitaxy</tspan><tspan x="1092.5" dy="17">/ Laser Yield</tspan></text>
  <rect class="node candidate" x="805" y="985" width="180" height="60"/>
  <text class="node-text" x="895" y="1009"><tspan x="895">SiPh Foundry</tspan><tspan x="895" dy="17">/ Wafer Yield</tspan></text>
  <rect class="node candidate" x="995" y="1045" width="195" height="60"/>
  <text class="node-text" x="1092.5" y="1069"><tspan x="1092.5">Active Alignment</tspan><tspan x="1092.5" dy="17">/ Burn-in</tspan></text>

  <!-- D3 nodes -->
  <rect class="node shared" x="1260" y="215" width="285" height="80"/>
  <text class="node-text" x="1402.5" y="241"><tspan x="1402.5">Bonding / Lithography</tspan><tspan x="1402.5" dy="18">/ Metrology Tools</tspan><tspan class="node-small" x="1402.5" dy="17">HBM + advanced packaging</tspan></text>

  <rect class="node shared" x="1260" y="440" width="285" height="80"/>
  <text class="node-text" x="1402.5" y="466"><tspan x="1402.5">Heavy Press / VIM-VAR</tspan><tspan x="1402.5" dy="18">/ Heat-treatment Furnaces</tspan><tspan class="node-small" x="1402.5" dy="17">power + nuclear + defense</tspan></text>
  <rect class="node context" x="1260" y="555" width="190" height="50"/>
  <text class="node-small" x="1355" y="576"><tspan x="1355">Nuclear / Defense</tspan><tspan x="1355" dy="16">Demand</tspan></text>

  <rect class="node candidate" x="1260" y="642" width="285" height="76"/>
  <text class="node-text" x="1402.5" y="668"><tspan x="1402.5">NAND Etch / Deposition</tspan><tspan x="1402.5" dy="18">/ Metrology Tools</tspan></text>
  <rect class="node shared" x="1260" y="755" width="285" height="80"/>
  <text class="node-text" x="1402.5" y="781"><tspan x="1402.5">Advanced-node Wafer</tspan><tspan x="1402.5" dy="18">/ Package-test Capacity</tspan><tspan class="node-small" x="1402.5" dy="17">SSD controller + optical DSP</tspan></text>

  <rect class="node candidate" x="1260" y="977" width="285" height="76"/>
  <text class="node-text" x="1402.5" y="1003"><tspan x="1402.5">InP Epi / Alignment</tspan><tspan x="1402.5" dy="18">/ Burn-in Equipment</tspan></text>

  <!-- Legend -->
  <rect x="20" y="1140" width="1560" height="90" rx="10" fill="#ffffff" stroke="#cbd5e1"/>
  <text class="legend-strong" x="42" y="1168">How to read:</text>
  <text class="legend" x="145" y="1168">Depth is relative. When a D1 node turns red, it becomes the new D0 and the map is measured again.</text>
  <rect x="42" y="1187" width="22" height="16" rx="4" class="confirmed"/>
  <text class="legend" x="74" y="1200">confirmed bottleneck</text>
  <rect x="270" y="1187" width="22" height="16" rx="4" class="direct"/>
  <text class="legend" x="302" y="1200">direct replication pressure</text>
  <rect x="535" y="1187" width="22" height="16" rx="4" class="candidate"/>
  <text class="legend" x="567" y="1200">deeper candidate</text>
  <rect x="740" y="1187" width="22" height="16" rx="4" class="shared"/>
  <text class="legend" x="772" y="1200">shared capacity / collision</text>
  <line x1="1015" y1="1195" x2="1055" y2="1195" class="pressure"/>
  <text class="legend" x="1067" y="1200">migration pressure</text>
  <line x1="1240" y1="1195" x2="1280" y2="1195" class="feedback"/>
  <text class="legend" x="1292" y="1200">capacity feedback</text>
</svg>
